<svg width="120" height="112" viewBox="0 0 120 112" fill="none" xmlns="http://www.w3.org/2000/svg">
<path d="M7.5 7H112.5V105H7.5V7Z" fill="#F5DE19"/>
<path d="M78.0333 83.5624C78.9279 85.2585 80.3179 86.6841 82.0429 87.6749C83.768 88.6657 85.7579 89.1813 87.7833 89.1624C91.8708 89.1624 94.4845 87.2549 94.4845 84.6124C94.4845 81.4624 91.7995 80.3354 87.2995 78.4979L84.832 77.5109C77.707 74.6794 72.982 71.1339 72.982 63.6369C72.982 56.7314 78.607 51.4709 87.4308 51.4709C90.2872 51.2784 93.1411 51.8751 95.6365 53.1865C98.132 54.4979 100.158 56.466 101.463 58.8454L93.7495 63.4479C93.2471 62.2681 92.3723 61.2588 91.2411 60.5537C90.11 59.8486 88.7759 59.4811 87.4158 59.4999C86.8224 59.4445 86.2231 59.505 85.6562 59.6777C85.0892 59.8503 84.567 60.1313 84.1229 60.5027C83.6787 60.8741 83.3223 61.3278 83.0764 61.8349C82.8305 62.342 82.7004 62.8913 82.6945 63.4479C82.6945 66.2094 84.5283 67.3294 88.762 69.0479L91.2295 70.0349C99.6145 73.3914 104.355 76.8109 104.355 84.5004C104.355 92.7919 97.3758 97.3349 88.0045 97.3349C84.3532 97.552 80.7125 96.7783 77.5218 95.1071C74.3312 93.4358 71.7269 90.9385 70.0233 87.9164L78.0333 83.5624ZM43.177 84.3604C44.7258 86.9259 46.1358 89.0959 49.5258 89.0959C52.7658 89.0959 54.8133 87.9129 54.8133 83.3104V51.9959H64.6795V83.4329C64.6795 92.9669 58.6795 97.3069 49.9458 97.3069C46.8586 97.4644 43.7926 96.7463 41.1509 95.2471C38.5091 93.7478 36.4152 91.5376 35.1445 88.9069L43.177 84.3604Z" fill="black"/>
</svg>
