<svg width="120" height="121" viewBox="0 0 120 121" fill="none" xmlns="http://www.w3.org/2000/svg">
<path d="M22.1325 102.854L13.71 7.5625H106.29L97.8562 102.839L59.9437 113.438L22.1325 102.854Z" fill="#1572B6"/>
<path d="M60 105.338L90.6375 96.7734L97.845 15.3555H60V105.338Z" fill="#33A9DC"/>
<path d="M60 49.8786H75.3375L76.395 37.911H60V26.2231H89.0625L88.785 29.3578L85.9387 61.5665H60V49.8786Z" fill="white"/>
<path d="M60.0716 80.2304L60.0191 80.2455L47.1116 76.729L46.2866 67.4082H34.6504L36.2741 85.7586L60.0154 92.406L60.0716 92.3909V80.2304Z" fill="#EBEBEB"/>
<path d="M74.3515 61.0708L72.9565 76.7214L60.0303 80.238V92.3985L83.7903 85.7586L83.9665 83.7848L85.9803 61.0708H74.3515Z" fill="white"/>
<path d="M60.0411 26.2231V37.911H32.0436L31.8111 35.283L31.2824 29.3578L31.0049 26.2231H60.0411ZM59.9999 49.8786V61.5665H47.2536L47.0211 58.9385L46.4961 53.0133L46.2186 49.8786H59.9999Z" fill="#EBEBEB"/>
</svg>
