<svg width="120" height="122" viewBox="0 0 120 122" fill="none" xmlns="http://www.w3.org/2000/svg">
<path d="M22.1323 103.704L13.7061 7.625H106.294L97.856 103.689L59.9436 114.375L22.1323 103.704Z" fill="#E44F26"/>
<path d="M60 106.208L90.6375 97.5732L97.845 15.4824H60V106.208Z" fill="#F1662A"/>
<path d="M60 51.1142H44.6625L43.605 39.0476H60V27.2632H30.9375L31.215 30.4276L34.0613 62.8986H60V51.1142ZM60 81.7171L59.9475 81.7324L47.04 78.1906L46.215 68.7928H34.5787L36.2025 87.291L59.9475 93.9934L60 93.9781V81.7171Z" fill="#EBEBEB"/>
<path d="M59.959 51.1142V62.8986H74.2315L72.889 78.1829L59.959 81.7286V93.9896L83.7227 87.291L83.8952 85.3009L86.6177 54.2786L86.9027 51.1142H59.959ZM59.959 27.2632V39.0476H87.9565L88.189 36.4017L88.7177 30.4276L88.9952 27.2632H59.959Z" fill="white"/>
</svg>
