<?xml version="1.0" standalone="no"?><svg xmlns="http://www.w3.org/2000/svg" viewBox="0 0 1440 320"><path fill="#a2d9ff" fill-opacity="1" d="M0,128L34.3,144C68.6,160,137,192,206,181.3C274.3,171,343,117,411,117.3C480,117,549,171,617,208C685.7,245,754,267,823,229.3C891.4,192,960,96,1029,64C1097.1,32,1166,64,1234,85.3C1302.9,107,1371,117,1406,122.7L1440,128L1440,0L1405.7,0C1371.4,0,1303,0,1234,0C1165.7,0,1097,0,1029,0C960,0,891,0,823,0C754.3,0,686,0,617,0C548.6,0,480,0,411,0C342.9,0,274,0,206,0C137.1,0,69,0,34,0L0,0Z"></path></svg>